<?xml version="1.0" encoding="utf-8" standalone="no"?>
<!DOCTYPE svg PUBLIC "-//W3C//DTD SVG 1.1//EN"
  "http://www.w3.org/Graphics/SVG/1.1/DTD/svg11.dtd">
<svg xmlns:xlink="http://www.w3.org/1999/xlink" width="360pt" height="360pt" viewBox="0 0 360 360" xmlns="http://www.w3.org/2000/svg" version="1.1">
 <metadata>
  <rdf:RDF xmlns:dc="http://purl.org/dc/elements/1.1/" xmlns:cc="http://creativecommons.org/ns#" xmlns:rdf="http://www.w3.org/1999/02/22-rdf-syntax-ns#">
   <cc:Work>
    <dc:type rdf:resource="http://purl.org/dc/dcmitype/StillImage"/>
    <dc:date>2023-07-24T16:44:44.888341</dc:date>
    <dc:format>image/svg+xml</dc:format>
    <dc:creator>
     <cc:Agent>
      <dc:title>Matplotlib v3.5.3, https://matplotlib.org/</dc:title>
     </cc:Agent>
    </dc:creator>
   </cc:Work>
  </rdf:RDF>
 </metadata>
 <defs>
  <style type="text/css">*{stroke-linejoin: round; stroke-linecap: butt}</style>
 </defs>
 <g id="figure_1">
  <g id="patch_1">
   <path d="M 0 360 
L 360 360 
L 360 0 
L 0 0 
z
" style="fill: #ffffff"/>
  </g>
  <g id="axes_1">
   <g id="patch_2">
    <path d="M 45 320.4 
L 324 320.4 
L 324 43.2 
L 45 43.2 
z
" style="fill: #ffffff"/>
   </g>
   <g id="matplotlib.axis_1">
    <g id="xtick_1">
     <g id="line2d_1">
      <defs>
       <path id="m8367a170f2" d="M 0 0 
L 0 3.5 
" style="stroke: #000000; stroke-width: 0.8"/>
      </defs>
      <g>
       <use xlink:href="#m8367a170f2" x="57.681818" y="320.4" style="stroke: #000000; stroke-width: 0.8"/>
      </g>
     </g>
     <g id="text_1">
      <!-- 0.0 -->
      <g transform="translate(49.730256 334.998438)scale(0.1 -0.1)">
       <defs>
        <path id="DejaVuSans-30" d="M 2034 4250 
Q 1547 4250 1301 3770 
Q 1056 3291 1056 2328 
Q 1056 1369 1301 889 
Q 1547 409 2034 409 
Q 2525 409 2770 889 
Q 3016 1369 3016 2328 
Q 3016 3291 2770 3770 
Q 2525 4250 2034 4250 
z
M 2034 4750 
Q 2819 4750 3233 4129 
Q 3647 3509 3647 2328 
Q 3647 1150 3233 529 
Q 2819 -91 2034 -91 
Q 1250 -91 836 529 
Q 422 1150 422 2328 
Q 422 3509 836 4129 
Q 1250 4750 2034 4750 
z
" transform="scale(0.015625)"/>
        <path id="DejaVuSans-2e" d="M 684 794 
L 1344 794 
L 1344 0 
L 684 0 
L 684 794 
z
" transform="scale(0.015625)"/>
       </defs>
       <use xlink:href="#DejaVuSans-30"/>
       <use xlink:href="#DejaVuSans-2e" x="63.623047"/>
       <use xlink:href="#DejaVuSans-30" x="95.410156"/>
      </g>
     </g>
    </g>
    <g id="xtick_2">
     <g id="line2d_2">
      <g>
       <use xlink:href="#m8367a170f2" x="108.409091" y="320.4" style="stroke: #000000; stroke-width: 0.8"/>
      </g>
     </g>
     <g id="text_2">
      <!-- 0.2 -->
      <g transform="translate(100.457528 334.998438)scale(0.1 -0.1)">
       <defs>
        <path id="DejaVuSans-32" d="M 1228 531 
L 3431 531 
L 3431 0 
L 469 0 
L 469 531 
Q 828 903 1448 1529 
Q 2069 2156 2228 2338 
Q 2531 2678 2651 2914 
Q 2772 3150 2772 3378 
Q 2772 3750 2511 3984 
Q 2250 4219 1831 4219 
Q 1534 4219 1204 4116 
Q 875 4013 500 3803 
L 500 4441 
Q 881 4594 1212 4672 
Q 1544 4750 1819 4750 
Q 2544 4750 2975 4387 
Q 3406 4025 3406 3419 
Q 3406 3131 3298 2873 
Q 3191 2616 2906 2266 
Q 2828 2175 2409 1742 
Q 1991 1309 1228 531 
z
" transform="scale(0.015625)"/>
       </defs>
       <use xlink:href="#DejaVuSans-30"/>
       <use xlink:href="#DejaVuSans-2e" x="63.623047"/>
       <use xlink:href="#DejaVuSans-32" x="95.410156"/>
      </g>
     </g>
    </g>
    <g id="xtick_3">
     <g id="line2d_3">
      <g>
       <use xlink:href="#m8367a170f2" x="159.136364" y="320.4" style="stroke: #000000; stroke-width: 0.8"/>
      </g>
     </g>
     <g id="text_3">
      <!-- 0.4 -->
      <g transform="translate(151.184801 334.998438)scale(0.1 -0.1)">
       <defs>
        <path id="DejaVuSans-34" d="M 2419 4116 
L 825 1625 
L 2419 1625 
L 2419 4116 
z
M 2253 4666 
L 3047 4666 
L 3047 1625 
L 3713 1625 
L 3713 1100 
L 3047 1100 
L 3047 0 
L 2419 0 
L 2419 1100 
L 313 1100 
L 313 1709 
L 2253 4666 
z
" transform="scale(0.015625)"/>
       </defs>
       <use xlink:href="#DejaVuSans-30"/>
       <use xlink:href="#DejaVuSans-2e" x="63.623047"/>
       <use xlink:href="#DejaVuSans-34" x="95.410156"/>
      </g>
     </g>
    </g>
    <g id="xtick_4">
     <g id="line2d_4">
      <g>
       <use xlink:href="#m8367a170f2" x="209.863636" y="320.4" style="stroke: #000000; stroke-width: 0.8"/>
      </g>
     </g>
     <g id="text_4">
      <!-- 0.6 -->
      <g transform="translate(201.912074 334.998438)scale(0.1 -0.1)">
       <defs>
        <path id="DejaVuSans-36" d="M 2113 2584 
Q 1688 2584 1439 2293 
Q 1191 2003 1191 1497 
Q 1191 994 1439 701 
Q 1688 409 2113 409 
Q 2538 409 2786 701 
Q 3034 994 3034 1497 
Q 3034 2003 2786 2293 
Q 2538 2584 2113 2584 
z
M 3366 4563 
L 3366 3988 
Q 3128 4100 2886 4159 
Q 2644 4219 2406 4219 
Q 1781 4219 1451 3797 
Q 1122 3375 1075 2522 
Q 1259 2794 1537 2939 
Q 1816 3084 2150 3084 
Q 2853 3084 3261 2657 
Q 3669 2231 3669 1497 
Q 3669 778 3244 343 
Q 2819 -91 2113 -91 
Q 1303 -91 875 529 
Q 447 1150 447 2328 
Q 447 3434 972 4092 
Q 1497 4750 2381 4750 
Q 2619 4750 2861 4703 
Q 3103 4656 3366 4563 
z
" transform="scale(0.015625)"/>
       </defs>
       <use xlink:href="#DejaVuSans-30"/>
       <use xlink:href="#DejaVuSans-2e" x="63.623047"/>
       <use xlink:href="#DejaVuSans-36" x="95.410156"/>
      </g>
     </g>
    </g>
    <g id="xtick_5">
     <g id="line2d_5">
      <g>
       <use xlink:href="#m8367a170f2" x="260.590909" y="320.4" style="stroke: #000000; stroke-width: 0.8"/>
      </g>
     </g>
     <g id="text_5">
      <!-- 0.8 -->
      <g transform="translate(252.639347 334.998438)scale(0.1 -0.1)">
       <defs>
        <path id="DejaVuSans-38" d="M 2034 2216 
Q 1584 2216 1326 1975 
Q 1069 1734 1069 1313 
Q 1069 891 1326 650 
Q 1584 409 2034 409 
Q 2484 409 2743 651 
Q 3003 894 3003 1313 
Q 3003 1734 2745 1975 
Q 2488 2216 2034 2216 
z
M 1403 2484 
Q 997 2584 770 2862 
Q 544 3141 544 3541 
Q 544 4100 942 4425 
Q 1341 4750 2034 4750 
Q 2731 4750 3128 4425 
Q 3525 4100 3525 3541 
Q 3525 3141 3298 2862 
Q 3072 2584 2669 2484 
Q 3125 2378 3379 2068 
Q 3634 1759 3634 1313 
Q 3634 634 3220 271 
Q 2806 -91 2034 -91 
Q 1263 -91 848 271 
Q 434 634 434 1313 
Q 434 1759 690 2068 
Q 947 2378 1403 2484 
z
M 1172 3481 
Q 1172 3119 1398 2916 
Q 1625 2713 2034 2713 
Q 2441 2713 2670 2916 
Q 2900 3119 2900 3481 
Q 2900 3844 2670 4047 
Q 2441 4250 2034 4250 
Q 1625 4250 1398 4047 
Q 1172 3844 1172 3481 
z
" transform="scale(0.015625)"/>
       </defs>
       <use xlink:href="#DejaVuSans-30"/>
       <use xlink:href="#DejaVuSans-2e" x="63.623047"/>
       <use xlink:href="#DejaVuSans-38" x="95.410156"/>
      </g>
     </g>
    </g>
    <g id="xtick_6">
     <g id="line2d_6">
      <g>
       <use xlink:href="#m8367a170f2" x="311.318182" y="320.4" style="stroke: #000000; stroke-width: 0.8"/>
      </g>
     </g>
     <g id="text_6">
      <!-- 1.0 -->
      <g transform="translate(303.366619 334.998438)scale(0.1 -0.1)">
       <defs>
        <path id="DejaVuSans-31" d="M 794 531 
L 1825 531 
L 1825 4091 
L 703 3866 
L 703 4441 
L 1819 4666 
L 2450 4666 
L 2450 531 
L 3481 531 
L 3481 0 
L 794 0 
L 794 531 
z
" transform="scale(0.015625)"/>
       </defs>
       <use xlink:href="#DejaVuSans-31"/>
       <use xlink:href="#DejaVuSans-2e" x="63.623047"/>
       <use xlink:href="#DejaVuSans-30" x="95.410156"/>
      </g>
     </g>
    </g>
    <g id="text_7">
     <!-- False Positive Rate -->
     <g transform="translate(138.033594 348.676562)scale(0.1 -0.1)">
      <defs>
       <path id="DejaVuSans-46" d="M 628 4666 
L 3309 4666 
L 3309 4134 
L 1259 4134 
L 1259 2759 
L 3109 2759 
L 3109 2228 
L 1259 2228 
L 1259 0 
L 628 0 
L 628 4666 
z
" transform="scale(0.015625)"/>
       <path id="DejaVuSans-61" d="M 2194 1759 
Q 1497 1759 1228 1600 
Q 959 1441 959 1056 
Q 959 750 1161 570 
Q 1363 391 1709 391 
Q 2188 391 2477 730 
Q 2766 1069 2766 1631 
L 2766 1759 
L 2194 1759 
z
M 3341 1997 
L 3341 0 
L 2766 0 
L 2766 531 
Q 2569 213 2275 61 
Q 1981 -91 1556 -91 
Q 1019 -91 701 211 
Q 384 513 384 1019 
Q 384 1609 779 1909 
Q 1175 2209 1959 2209 
L 2766 2209 
L 2766 2266 
Q 2766 2663 2505 2880 
Q 2244 3097 1772 3097 
Q 1472 3097 1187 3025 
Q 903 2953 641 2809 
L 641 3341 
Q 956 3463 1253 3523 
Q 1550 3584 1831 3584 
Q 2591 3584 2966 3190 
Q 3341 2797 3341 1997 
z
" transform="scale(0.015625)"/>
       <path id="DejaVuSans-6c" d="M 603 4863 
L 1178 4863 
L 1178 0 
L 603 0 
L 603 4863 
z
" transform="scale(0.015625)"/>
       <path id="DejaVuSans-73" d="M 2834 3397 
L 2834 2853 
Q 2591 2978 2328 3040 
Q 2066 3103 1784 3103 
Q 1356 3103 1142 2972 
Q 928 2841 928 2578 
Q 928 2378 1081 2264 
Q 1234 2150 1697 2047 
L 1894 2003 
Q 2506 1872 2764 1633 
Q 3022 1394 3022 966 
Q 3022 478 2636 193 
Q 2250 -91 1575 -91 
Q 1294 -91 989 -36 
Q 684 19 347 128 
L 347 722 
Q 666 556 975 473 
Q 1284 391 1588 391 
Q 1994 391 2212 530 
Q 2431 669 2431 922 
Q 2431 1156 2273 1281 
Q 2116 1406 1581 1522 
L 1381 1569 
Q 847 1681 609 1914 
Q 372 2147 372 2553 
Q 372 3047 722 3315 
Q 1072 3584 1716 3584 
Q 2034 3584 2315 3537 
Q 2597 3491 2834 3397 
z
" transform="scale(0.015625)"/>
       <path id="DejaVuSans-65" d="M 3597 1894 
L 3597 1613 
L 953 1613 
Q 991 1019 1311 708 
Q 1631 397 2203 397 
Q 2534 397 2845 478 
Q 3156 559 3463 722 
L 3463 178 
Q 3153 47 2828 -22 
Q 2503 -91 2169 -91 
Q 1331 -91 842 396 
Q 353 884 353 1716 
Q 353 2575 817 3079 
Q 1281 3584 2069 3584 
Q 2775 3584 3186 3129 
Q 3597 2675 3597 1894 
z
M 3022 2063 
Q 3016 2534 2758 2815 
Q 2500 3097 2075 3097 
Q 1594 3097 1305 2825 
Q 1016 2553 972 2059 
L 3022 2063 
z
" transform="scale(0.015625)"/>
       <path id="DejaVuSans-20" transform="scale(0.015625)"/>
       <path id="DejaVuSans-50" d="M 1259 4147 
L 1259 2394 
L 2053 2394 
Q 2494 2394 2734 2622 
Q 2975 2850 2975 3272 
Q 2975 3691 2734 3919 
Q 2494 4147 2053 4147 
L 1259 4147 
z
M 628 4666 
L 2053 4666 
Q 2838 4666 3239 4311 
Q 3641 3956 3641 3272 
Q 3641 2581 3239 2228 
Q 2838 1875 2053 1875 
L 1259 1875 
L 1259 0 
L 628 0 
L 628 4666 
z
" transform="scale(0.015625)"/>
       <path id="DejaVuSans-6f" d="M 1959 3097 
Q 1497 3097 1228 2736 
Q 959 2375 959 1747 
Q 959 1119 1226 758 
Q 1494 397 1959 397 
Q 2419 397 2687 759 
Q 2956 1122 2956 1747 
Q 2956 2369 2687 2733 
Q 2419 3097 1959 3097 
z
M 1959 3584 
Q 2709 3584 3137 3096 
Q 3566 2609 3566 1747 
Q 3566 888 3137 398 
Q 2709 -91 1959 -91 
Q 1206 -91 779 398 
Q 353 888 353 1747 
Q 353 2609 779 3096 
Q 1206 3584 1959 3584 
z
" transform="scale(0.015625)"/>
       <path id="DejaVuSans-69" d="M 603 3500 
L 1178 3500 
L 1178 0 
L 603 0 
L 603 3500 
z
M 603 4863 
L 1178 4863 
L 1178 4134 
L 603 4134 
L 603 4863 
z
" transform="scale(0.015625)"/>
       <path id="DejaVuSans-74" d="M 1172 4494 
L 1172 3500 
L 2356 3500 
L 2356 3053 
L 1172 3053 
L 1172 1153 
Q 1172 725 1289 603 
Q 1406 481 1766 481 
L 2356 481 
L 2356 0 
L 1766 0 
Q 1100 0 847 248 
Q 594 497 594 1153 
L 594 3053 
L 172 3053 
L 172 3500 
L 594 3500 
L 594 4494 
L 1172 4494 
z
" transform="scale(0.015625)"/>
       <path id="DejaVuSans-76" d="M 191 3500 
L 800 3500 
L 1894 563 
L 2988 3500 
L 3597 3500 
L 2284 0 
L 1503 0 
L 191 3500 
z
" transform="scale(0.015625)"/>
       <path id="DejaVuSans-52" d="M 2841 2188 
Q 3044 2119 3236 1894 
Q 3428 1669 3622 1275 
L 4263 0 
L 3584 0 
L 2988 1197 
Q 2756 1666 2539 1819 
Q 2322 1972 1947 1972 
L 1259 1972 
L 1259 0 
L 628 0 
L 628 4666 
L 2053 4666 
Q 2853 4666 3247 4331 
Q 3641 3997 3641 3322 
Q 3641 2881 3436 2590 
Q 3231 2300 2841 2188 
z
M 1259 4147 
L 1259 2491 
L 2053 2491 
Q 2509 2491 2742 2702 
Q 2975 2913 2975 3322 
Q 2975 3731 2742 3939 
Q 2509 4147 2053 4147 
L 1259 4147 
z
" transform="scale(0.015625)"/>
      </defs>
      <use xlink:href="#DejaVuSans-46"/>
      <use xlink:href="#DejaVuSans-61" x="48.394531"/>
      <use xlink:href="#DejaVuSans-6c" x="109.673828"/>
      <use xlink:href="#DejaVuSans-73" x="137.457031"/>
      <use xlink:href="#DejaVuSans-65" x="189.556641"/>
      <use xlink:href="#DejaVuSans-20" x="251.080078"/>
      <use xlink:href="#DejaVuSans-50" x="282.867188"/>
      <use xlink:href="#DejaVuSans-6f" x="339.544922"/>
      <use xlink:href="#DejaVuSans-73" x="400.726562"/>
      <use xlink:href="#DejaVuSans-69" x="452.826172"/>
      <use xlink:href="#DejaVuSans-74" x="480.609375"/>
      <use xlink:href="#DejaVuSans-69" x="519.818359"/>
      <use xlink:href="#DejaVuSans-76" x="547.601562"/>
      <use xlink:href="#DejaVuSans-65" x="606.78125"/>
      <use xlink:href="#DejaVuSans-20" x="668.304688"/>
      <use xlink:href="#DejaVuSans-52" x="700.091797"/>
      <use xlink:href="#DejaVuSans-61" x="767.324219"/>
      <use xlink:href="#DejaVuSans-74" x="828.603516"/>
      <use xlink:href="#DejaVuSans-65" x="867.8125"/>
     </g>
    </g>
   </g>
   <g id="matplotlib.axis_2">
    <g id="ytick_1">
     <g id="line2d_7">
      <defs>
       <path id="m27c4c6d4ed" d="M 0 0 
L -3.5 0 
" style="stroke: #000000; stroke-width: 0.8"/>
      </defs>
      <g>
       <use xlink:href="#m27c4c6d4ed" x="45" y="307.8" style="stroke: #000000; stroke-width: 0.8"/>
      </g>
     </g>
     <g id="text_8">
      <!-- 0.0 -->
      <g transform="translate(22.096875 311.599219)scale(0.1 -0.1)">
       <use xlink:href="#DejaVuSans-30"/>
       <use xlink:href="#DejaVuSans-2e" x="63.623047"/>
       <use xlink:href="#DejaVuSans-30" x="95.410156"/>
      </g>
     </g>
    </g>
    <g id="ytick_2">
     <g id="line2d_8">
      <g>
       <use xlink:href="#m27c4c6d4ed" x="45" y="257.4" style="stroke: #000000; stroke-width: 0.8"/>
      </g>
     </g>
     <g id="text_9">
      <!-- 0.2 -->
      <g transform="translate(22.096875 261.199219)scale(0.1 -0.1)">
       <use xlink:href="#DejaVuSans-30"/>
       <use xlink:href="#DejaVuSans-2e" x="63.623047"/>
       <use xlink:href="#DejaVuSans-32" x="95.410156"/>
      </g>
     </g>
    </g>
    <g id="ytick_3">
     <g id="line2d_9">
      <g>
       <use xlink:href="#m27c4c6d4ed" x="45" y="207" style="stroke: #000000; stroke-width: 0.8"/>
      </g>
     </g>
     <g id="text_10">
      <!-- 0.4 -->
      <g transform="translate(22.096875 210.799219)scale(0.1 -0.1)">
       <use xlink:href="#DejaVuSans-30"/>
       <use xlink:href="#DejaVuSans-2e" x="63.623047"/>
       <use xlink:href="#DejaVuSans-34" x="95.410156"/>
      </g>
     </g>
    </g>
    <g id="ytick_4">
     <g id="line2d_10">
      <g>
       <use xlink:href="#m27c4c6d4ed" x="45" y="156.6" style="stroke: #000000; stroke-width: 0.8"/>
      </g>
     </g>
     <g id="text_11">
      <!-- 0.6 -->
      <g transform="translate(22.096875 160.399219)scale(0.1 -0.1)">
       <use xlink:href="#DejaVuSans-30"/>
       <use xlink:href="#DejaVuSans-2e" x="63.623047"/>
       <use xlink:href="#DejaVuSans-36" x="95.410156"/>
      </g>
     </g>
    </g>
    <g id="ytick_5">
     <g id="line2d_11">
      <g>
       <use xlink:href="#m27c4c6d4ed" x="45" y="106.2" style="stroke: #000000; stroke-width: 0.8"/>
      </g>
     </g>
     <g id="text_12">
      <!-- 0.8 -->
      <g transform="translate(22.096875 109.999219)scale(0.1 -0.1)">
       <use xlink:href="#DejaVuSans-30"/>
       <use xlink:href="#DejaVuSans-2e" x="63.623047"/>
       <use xlink:href="#DejaVuSans-38" x="95.410156"/>
      </g>
     </g>
    </g>
    <g id="ytick_6">
     <g id="line2d_12">
      <g>
       <use xlink:href="#m27c4c6d4ed" x="45" y="55.8" style="stroke: #000000; stroke-width: 0.8"/>
      </g>
     </g>
     <g id="text_13">
      <!-- 1.0 -->
      <g transform="translate(22.096875 59.599219)scale(0.1 -0.1)">
       <use xlink:href="#DejaVuSans-31"/>
       <use xlink:href="#DejaVuSans-2e" x="63.623047"/>
       <use xlink:href="#DejaVuSans-30" x="95.410156"/>
      </g>
     </g>
    </g>
    <g id="text_14">
     <!-- True Positive Rate -->
     <g transform="translate(16.017187 226.329687)rotate(-90)scale(0.1 -0.1)">
      <defs>
       <path id="DejaVuSans-54" d="M -19 4666 
L 3928 4666 
L 3928 4134 
L 2272 4134 
L 2272 0 
L 1638 0 
L 1638 4134 
L -19 4134 
L -19 4666 
z
" transform="scale(0.015625)"/>
       <path id="DejaVuSans-72" d="M 2631 2963 
Q 2534 3019 2420 3045 
Q 2306 3072 2169 3072 
Q 1681 3072 1420 2755 
Q 1159 2438 1159 1844 
L 1159 0 
L 581 0 
L 581 3500 
L 1159 3500 
L 1159 2956 
Q 1341 3275 1631 3429 
Q 1922 3584 2338 3584 
Q 2397 3584 2469 3576 
Q 2541 3569 2628 3553 
L 2631 2963 
z
" transform="scale(0.015625)"/>
       <path id="DejaVuSans-75" d="M 544 1381 
L 544 3500 
L 1119 3500 
L 1119 1403 
Q 1119 906 1312 657 
Q 1506 409 1894 409 
Q 2359 409 2629 706 
Q 2900 1003 2900 1516 
L 2900 3500 
L 3475 3500 
L 3475 0 
L 2900 0 
L 2900 538 
Q 2691 219 2414 64 
Q 2138 -91 1772 -91 
Q 1169 -91 856 284 
Q 544 659 544 1381 
z
M 1991 3584 
L 1991 3584 
z
" transform="scale(0.015625)"/>
      </defs>
      <use xlink:href="#DejaVuSans-54"/>
      <use xlink:href="#DejaVuSans-72" x="46.333984"/>
      <use xlink:href="#DejaVuSans-75" x="87.447266"/>
      <use xlink:href="#DejaVuSans-65" x="150.826172"/>
      <use xlink:href="#DejaVuSans-20" x="212.349609"/>
      <use xlink:href="#DejaVuSans-50" x="244.136719"/>
      <use xlink:href="#DejaVuSans-6f" x="300.814453"/>
      <use xlink:href="#DejaVuSans-73" x="361.996094"/>
      <use xlink:href="#DejaVuSans-69" x="414.095703"/>
      <use xlink:href="#DejaVuSans-74" x="441.878906"/>
      <use xlink:href="#DejaVuSans-69" x="481.087891"/>
      <use xlink:href="#DejaVuSans-76" x="508.871094"/>
      <use xlink:href="#DejaVuSans-65" x="568.050781"/>
      <use xlink:href="#DejaVuSans-20" x="629.574219"/>
      <use xlink:href="#DejaVuSans-52" x="661.361328"/>
      <use xlink:href="#DejaVuSans-61" x="728.59375"/>
      <use xlink:href="#DejaVuSans-74" x="789.873047"/>
      <use xlink:href="#DejaVuSans-65" x="829.082031"/>
     </g>
    </g>
   </g>
   <g id="line2d_13">
    <path d="M 57.681818 307.8 
L 57.681818 306.954362 
L 57.681818 120.914094 
L 60.269944 120.914094 
L 60.269944 102.310067 
L 62.858071 102.310067 
L 62.858071 94.699329 
L 65.446197 94.699329 
L 65.446197 93.853691 
L 70.622449 93.853691 
L 70.622449 93.008054 
L 73.210575 93.008054 
L 73.210575 83.70604 
L 78.386827 83.70604 
L 78.386827 82.860403 
L 80.974954 82.860403 
L 80.974954 79.477852 
L 83.56308 79.477852 
L 83.56308 78.632215 
L 86.151206 78.632215 
L 86.151206 77.786577 
L 93.915584 77.786577 
L 93.915584 76.94094 
L 101.679963 76.94094 
L 101.679963 73.558389 
L 106.856215 73.558389 
L 106.856215 72.712752 
L 109.444341 72.712752 
L 109.444341 71.867114 
L 122.384972 71.867114 
L 122.384972 71.021477 
L 124.973098 71.021477 
L 124.973098 70.175839 
L 127.561224 70.175839 
L 127.561224 69.330201 
L 132.737477 69.330201 
L 132.737477 68.484564 
L 140.501855 68.484564 
L 140.501855 67.638926 
L 148.266234 67.638926 
L 148.266234 66.793289 
L 153.442486 66.793289 
L 153.442486 65.947651 
L 163.794991 65.947651 
L 163.794991 65.102013 
L 168.971243 65.102013 
L 168.971243 63.410738 
L 179.323748 63.410738 
L 179.323748 62.565101 
L 184.5 62.565101 
L 184.5 61.719463 
L 202.616883 61.719463 
L 202.616883 60.873826 
L 205.205009 60.873826 
L 205.205009 60.028188 
L 264.731911 60.028188 
L 264.731911 57.491275 
L 277.672542 57.491275 
L 277.672542 56.645638 
L 298.377551 56.645638 
L 298.377551 55.8 
L 311.318182 55.8 
" clip-path="url(#pcf85bbd1e8)" style="fill: none; stroke-dasharray: 4.44,1.92; stroke-dashoffset: 0; stroke: #1f77b4; stroke-width: 1.2"/>
   </g>
   <g id="line2d_14">
    <path d="M 57.681818 307.8 
L 57.681818 306.954362 
L 57.681818 113.303356 
L 60.269944 113.303356 
L 60.269944 104.84698 
L 62.858071 104.84698 
L 62.858071 104.001342 
L 65.446197 104.001342 
L 65.446197 103.155705 
L 68.034323 103.155705 
L 68.034323 98.081879 
L 70.622449 98.081879 
L 70.622449 93.853691 
L 73.210575 93.853691 
L 73.210575 91.316779 
L 75.798701 91.316779 
L 75.798701 88.779866 
L 78.386827 88.779866 
L 78.386827 87.934228 
L 80.974954 87.934228 
L 80.974954 84.551678 
L 83.56308 84.551678 
L 83.56308 82.014765 
L 86.151206 82.014765 
L 86.151206 78.632215 
L 88.739332 78.632215 
L 88.739332 77.786577 
L 91.327458 77.786577 
L 91.327458 76.095302 
L 117.20872 76.095302 
L 117.20872 73.558389 
L 122.384972 73.558389 
L 122.384972 72.712752 
L 137.913729 72.712752 
L 137.913729 71.867114 
L 143.089981 71.867114 
L 143.089981 71.021477 
L 150.85436 71.021477 
L 150.85436 70.175839 
L 156.030612 70.175839 
L 156.030612 69.330201 
L 166.383117 69.330201 
L 166.383117 67.638926 
L 168.971243 67.638926 
L 168.971243 66.793289 
L 174.147495 66.793289 
L 174.147495 65.947651 
L 179.323748 65.947651 
L 179.323748 65.102013 
L 192.264378 65.102013 
L 192.264378 64.256376 
L 210.381262 64.256376 
L 210.381262 63.410738 
L 212.969388 63.410738 
L 212.969388 62.565101 
L 215.557514 62.565101 
L 215.557514 61.719463 
L 218.14564 61.719463 
L 218.14564 60.873826 
L 244.026902 60.873826 
L 244.026902 60.028188 
L 249.203154 60.028188 
L 249.203154 59.18255 
L 259.555659 59.18255 
L 259.555659 58.336913 
L 269.908163 58.336913 
L 269.908163 57.491275 
L 272.496289 57.491275 
L 272.496289 56.645638 
L 298.377551 56.645638 
L 298.377551 55.8 
L 311.318182 55.8 
" clip-path="url(#pcf85bbd1e8)" style="fill: none; stroke-dasharray: 4.44,1.92; stroke-dashoffset: 0; stroke: #ff7f0e; stroke-width: 1.2"/>
   </g>
   <g id="line2d_15">
    <path d="M 57.681818 307.8 
L 57.681818 306.954362 
L 57.681818 107.383893 
L 60.269944 107.383893 
L 60.269944 106.538255 
L 62.858071 106.538255 
L 62.858071 94.699329 
L 65.446197 94.699329 
L 65.446197 93.853691 
L 68.034323 93.853691 
L 68.034323 92.162416 
L 70.622449 92.162416 
L 70.622449 83.70604 
L 73.210575 83.70604 
L 73.210575 79.477852 
L 75.798701 79.477852 
L 75.798701 78.632215 
L 83.56308 78.632215 
L 83.56308 76.94094 
L 86.151206 76.94094 
L 86.151206 73.558389 
L 91.327458 73.558389 
L 91.327458 72.712752 
L 93.915584 72.712752 
L 93.915584 67.638926 
L 96.503711 67.638926 
L 96.503711 66.793289 
L 112.032468 66.793289 
L 112.032468 65.947651 
L 119.796846 65.947651 
L 119.796846 65.102013 
L 122.384972 65.102013 
L 122.384972 64.256376 
L 166.383117 64.256376 
L 166.383117 62.565101 
L 174.147495 62.565101 
L 174.147495 61.719463 
L 176.735622 61.719463 
L 176.735622 60.873826 
L 197.440631 60.873826 
L 197.440631 59.18255 
L 200.028757 59.18255 
L 200.028757 58.336913 
L 259.555659 58.336913 
L 259.555659 56.645638 
L 295.789425 56.645638 
L 295.789425 55.8 
L 311.318182 55.8 
" clip-path="url(#pcf85bbd1e8)" style="fill: none; stroke-dasharray: 4.44,1.92; stroke-dashoffset: 0; stroke: #2ca02c; stroke-width: 1.2"/>
   </g>
   <g id="line2d_16">
    <path d="M 57.681818 307.8 
L 57.681818 306.954362 
L 57.681818 189.410738 
L 60.269944 189.410738 
L 60.269944 120.914094 
L 62.858071 120.914094 
L 62.858071 109.920805 
L 65.446197 109.920805 
L 65.446197 101.46443 
L 68.034323 101.46443 
L 68.034323 99.773154 
L 70.622449 99.773154 
L 70.622449 97.236242 
L 73.210575 97.236242 
L 73.210575 93.853691 
L 75.798701 93.853691 
L 75.798701 93.008054 
L 78.386827 93.008054 
L 78.386827 81.169128 
L 80.974954 81.169128 
L 80.974954 77.786577 
L 83.56308 77.786577 
L 83.56308 75.249664 
L 88.739332 75.249664 
L 88.739332 74.404027 
L 99.091837 74.404027 
L 99.091837 72.712752 
L 106.856215 72.712752 
L 106.856215 71.867114 
L 112.032468 71.867114 
L 112.032468 71.021477 
L 117.20872 71.021477 
L 117.20872 70.175839 
L 132.737477 70.175839 
L 132.737477 68.484564 
L 140.501855 68.484564 
L 140.501855 67.638926 
L 145.678108 67.638926 
L 145.678108 66.793289 
L 148.266234 66.793289 
L 148.266234 65.947651 
L 153.442486 65.947651 
L 153.442486 65.102013 
L 161.206865 65.102013 
L 161.206865 64.256376 
L 168.971243 64.256376 
L 168.971243 63.410738 
L 174.147495 63.410738 
L 174.147495 62.565101 
L 176.735622 62.565101 
L 176.735622 61.719463 
L 179.323748 61.719463 
L 179.323748 60.873826 
L 189.676252 60.873826 
L 189.676252 60.028188 
L 194.852505 60.028188 
L 194.852505 59.18255 
L 207.793135 59.18255 
L 207.793135 58.336913 
L 231.086271 58.336913 
L 231.086271 57.491275 
L 244.026902 57.491275 
L 244.026902 56.645638 
L 267.320037 56.645638 
L 267.320037 55.8 
L 311.318182 55.8 
" clip-path="url(#pcf85bbd1e8)" style="fill: none; stroke-dasharray: 4.44,1.92; stroke-dashoffset: 0; stroke: #d62728; stroke-width: 1.2"/>
   </g>
   <g id="line2d_17">
    <path d="M 57.681818 307.8 
L 57.681818 306.954362 
L 57.681818 106.538255 
L 62.858071 106.538255 
L 62.858071 102.310067 
L 65.446197 102.310067 
L 65.446197 101.46443 
L 68.034323 101.46443 
L 68.034323 95.544966 
L 70.622449 95.544966 
L 70.622449 91.316779 
L 75.798701 91.316779 
L 75.798701 90.471141 
L 80.974954 90.471141 
L 80.974954 88.779866 
L 83.56308 88.779866 
L 83.56308 87.088591 
L 86.151206 87.088591 
L 86.151206 86.242953 
L 88.739332 86.242953 
L 88.739332 85.397315 
L 91.327458 85.397315 
L 91.327458 83.70604 
L 93.915584 83.70604 
L 93.915584 81.169128 
L 96.503711 81.169128 
L 96.503711 80.32349 
L 101.679963 80.32349 
L 101.679963 79.477852 
L 104.268089 79.477852 
L 104.268089 78.632215 
L 106.856215 78.632215 
L 106.856215 77.786577 
L 112.032468 77.786577 
L 112.032468 76.095302 
L 114.620594 76.095302 
L 114.620594 75.249664 
L 117.20872 75.249664 
L 117.20872 74.404027 
L 122.384972 74.404027 
L 122.384972 73.558389 
L 124.973098 73.558389 
L 124.973098 72.712752 
L 127.561224 72.712752 
L 127.561224 70.175839 
L 130.149351 70.175839 
L 130.149351 69.330201 
L 132.737477 69.330201 
L 132.737477 68.484564 
L 140.501855 68.484564 
L 140.501855 67.638926 
L 145.678108 67.638926 
L 145.678108 66.793289 
L 171.559369 66.793289 
L 171.559369 65.947651 
L 187.088126 65.947651 
L 187.088126 64.256376 
L 197.440631 64.256376 
L 197.440631 63.410738 
L 200.028757 63.410738 
L 200.028757 61.719463 
L 205.205009 61.719463 
L 205.205009 59.18255 
L 212.969388 59.18255 
L 212.969388 58.336913 
L 215.557514 58.336913 
L 215.557514 57.491275 
L 231.086271 57.491275 
L 231.086271 56.645638 
L 264.731911 56.645638 
L 264.731911 55.8 
L 311.318182 55.8 
" clip-path="url(#pcf85bbd1e8)" style="fill: none; stroke-dasharray: 4.44,1.92; stroke-dashoffset: 0; stroke: #9467bd; stroke-width: 1.2"/>
   </g>
   <g id="line2d_18">
    <path d="M 57.681818 307.8 
L 311.318182 55.8 
" clip-path="url(#pcf85bbd1e8)" style="fill: none; stroke: #000000; stroke-width: 0.6; stroke-linecap: square"/>
   </g>
   <g id="line2d_19">
    <path d="M 57.681818 307.8 
L 57.935708 127.510067 
L 60.220721 127.510067 
L 60.474611 108.22953 
L 62.759623 108.22953 
L 63.013514 101.126174 
L 65.298526 101.126174 
L 65.552416 98.758389 
L 67.837428 98.758389 
L 68.091319 95.883221 
L 70.376331 95.883221 
L 70.630221 91.824161 
L 73.169124 91.824161 
L 73.423014 87.934228 
L 75.708026 87.934228 
L 75.961916 86.919463 
L 78.246929 86.919463 
L 78.500819 84.213423 
L 80.785831 84.213423 
L 81.039722 81.845638 
L 83.324734 81.845638 
L 83.578624 79.985235 
L 86.117527 79.985235 
L 86.371417 78.29396 
L 88.656429 78.29396 
L 88.910319 77.786577 
L 91.195332 77.786577 
L 91.449222 76.94094 
L 93.734234 76.94094 
L 93.988124 75.249664 
L 96.273137 75.249664 
L 96.527027 74.911409 
L 99.06593 74.911409 
L 99.31982 74.573154 
L 101.604832 74.573154 
L 101.858722 73.727517 
L 104.143735 73.727517 
L 104.397625 73.558389 
L 106.682637 73.558389 
L 106.936527 73.051007 
L 109.22154 73.051007 
L 109.47543 72.881879 
L 112.014333 72.881879 
L 112.268223 72.205369 
L 114.553235 72.205369 
L 114.807125 72.036242 
L 117.092138 72.036242 
L 117.346028 71.190604 
L 119.63104 71.190604 
L 119.88493 71.021477 
L 122.169943 71.021477 
L 122.423833 70.344966 
L 124.962735 70.344966 
L 125.216626 70.006711 
L 127.501638 70.006711 
L 127.755528 69.330201 
L 130.040541 69.330201 
L 130.294431 69.161074 
L 132.579443 69.161074 
L 132.833333 68.484564 
L 137.911138 68.484564 
L 138.165029 68.315436 
L 140.450041 68.315436 
L 140.703931 67.808054 
L 142.988943 67.808054 
L 143.242834 67.638926 
L 145.527846 67.638926 
L 145.781736 67.300671 
L 148.066749 67.300671 
L 148.320639 66.962416 
L 150.605651 66.962416 
L 150.859541 66.793289 
L 153.398444 66.793289 
L 153.652334 66.455034 
L 155.937346 66.455034 
L 156.191237 66.285906 
L 161.015152 66.285906 
L 161.269042 66.116779 
L 163.554054 66.116779 
L 163.807944 65.947651 
L 166.346847 65.947651 
L 166.600737 65.271141 
L 168.885749 65.271141 
L 169.13964 64.594631 
L 171.424652 64.594631 
L 171.678542 64.425503 
L 173.963554 64.425503 
L 174.217445 63.918121 
L 176.502457 63.918121 
L 176.756347 63.579866 
L 179.29525 63.579866 
L 179.54914 63.072483 
L 184.373055 63.072483 
L 184.626945 62.903356 
L 186.911957 62.903356 
L 187.165848 62.565101 
L 189.45086 62.565101 
L 189.70475 62.395973 
L 192.243653 62.395973 
L 192.497543 62.226846 
L 194.782555 62.226846 
L 195.036446 62.057718 
L 197.321458 62.057718 
L 197.575348 61.550336 
L 199.86036 61.550336 
L 200.114251 61.042953 
L 202.399263 61.042953 
L 202.653153 60.873826 
L 205.192056 60.873826 
L 205.445946 60.197315 
L 207.730958 60.197315 
L 207.984848 60.028188 
L 210.269861 60.028188 
L 210.523751 59.85906 
L 212.808763 59.85906 
L 213.062654 59.520805 
L 215.347666 59.520805 
L 215.601556 59.18255 
L 218.140459 59.18255 
L 218.394349 59.013423 
L 230.834971 59.013423 
L 231.088862 58.675168 
L 243.783374 58.675168 
L 244.037265 58.336913 
L 249.11507 58.336913 
L 249.36896 58.167785 
L 259.52457 58.167785 
L 259.77846 57.660403 
L 264.602375 57.660403 
L 264.856265 56.983893 
L 267.141278 56.983893 
L 267.395168 56.814765 
L 269.68018 56.814765 
L 269.93407 56.645638 
L 272.472973 56.645638 
L 272.726863 56.47651 
L 277.550778 56.47651 
L 277.804668 56.307383 
L 295.576986 56.307383 
L 295.830876 56.138255 
L 298.369779 56.138255 
L 298.623669 55.8 
L 311.318182 55.8 
L 311.318182 55.8 
" clip-path="url(#pcf85bbd1e8)" style="fill: none; stroke: #a52a2a; stroke-opacity: 0.8; stroke-width: 1.2; stroke-linecap: square"/>
   </g>
   <g id="patch_3">
    <path d="M 45 320.4 
L 45 43.2 
" style="fill: none; stroke: #000000; stroke-width: 0.8; stroke-linejoin: miter; stroke-linecap: square"/>
   </g>
   <g id="patch_4">
    <path d="M 324 320.4 
L 324 43.2 
" style="fill: none; stroke: #000000; stroke-width: 0.8; stroke-linejoin: miter; stroke-linecap: square"/>
   </g>
   <g id="patch_5">
    <path d="M 45 320.4 
L 324 320.4 
" style="fill: none; stroke: #000000; stroke-width: 0.8; stroke-linejoin: miter; stroke-linecap: square"/>
   </g>
   <g id="patch_6">
    <path d="M 45 43.2 
L 324 43.2 
" style="fill: none; stroke: #000000; stroke-width: 0.8; stroke-linejoin: miter; stroke-linecap: square"/>
   </g>
   <g id="text_15">
    <!-- Cross Valiadation Roc curve for METABRIC -->
    <g transform="translate(37.812812 37.2)scale(0.14 -0.14)">
     <defs>
      <path id="DejaVuSans-43" d="M 4122 4306 
L 4122 3641 
Q 3803 3938 3442 4084 
Q 3081 4231 2675 4231 
Q 1875 4231 1450 3742 
Q 1025 3253 1025 2328 
Q 1025 1406 1450 917 
Q 1875 428 2675 428 
Q 3081 428 3442 575 
Q 3803 722 4122 1019 
L 4122 359 
Q 3791 134 3420 21 
Q 3050 -91 2638 -91 
Q 1578 -91 968 557 
Q 359 1206 359 2328 
Q 359 3453 968 4101 
Q 1578 4750 2638 4750 
Q 3056 4750 3426 4639 
Q 3797 4528 4122 4306 
z
" transform="scale(0.015625)"/>
      <path id="DejaVuSans-56" d="M 1831 0 
L 50 4666 
L 709 4666 
L 2188 738 
L 3669 4666 
L 4325 4666 
L 2547 0 
L 1831 0 
z
" transform="scale(0.015625)"/>
      <path id="DejaVuSans-64" d="M 2906 2969 
L 2906 4863 
L 3481 4863 
L 3481 0 
L 2906 0 
L 2906 525 
Q 2725 213 2448 61 
Q 2172 -91 1784 -91 
Q 1150 -91 751 415 
Q 353 922 353 1747 
Q 353 2572 751 3078 
Q 1150 3584 1784 3584 
Q 2172 3584 2448 3432 
Q 2725 3281 2906 2969 
z
M 947 1747 
Q 947 1113 1208 752 
Q 1469 391 1925 391 
Q 2381 391 2643 752 
Q 2906 1113 2906 1747 
Q 2906 2381 2643 2742 
Q 2381 3103 1925 3103 
Q 1469 3103 1208 2742 
Q 947 2381 947 1747 
z
" transform="scale(0.015625)"/>
      <path id="DejaVuSans-6e" d="M 3513 2113 
L 3513 0 
L 2938 0 
L 2938 2094 
Q 2938 2591 2744 2837 
Q 2550 3084 2163 3084 
Q 1697 3084 1428 2787 
Q 1159 2491 1159 1978 
L 1159 0 
L 581 0 
L 581 3500 
L 1159 3500 
L 1159 2956 
Q 1366 3272 1645 3428 
Q 1925 3584 2291 3584 
Q 2894 3584 3203 3211 
Q 3513 2838 3513 2113 
z
" transform="scale(0.015625)"/>
      <path id="DejaVuSans-63" d="M 3122 3366 
L 3122 2828 
Q 2878 2963 2633 3030 
Q 2388 3097 2138 3097 
Q 1578 3097 1268 2742 
Q 959 2388 959 1747 
Q 959 1106 1268 751 
Q 1578 397 2138 397 
Q 2388 397 2633 464 
Q 2878 531 3122 666 
L 3122 134 
Q 2881 22 2623 -34 
Q 2366 -91 2075 -91 
Q 1284 -91 818 406 
Q 353 903 353 1747 
Q 353 2603 823 3093 
Q 1294 3584 2113 3584 
Q 2378 3584 2631 3529 
Q 2884 3475 3122 3366 
z
" transform="scale(0.015625)"/>
      <path id="DejaVuSans-66" d="M 2375 4863 
L 2375 4384 
L 1825 4384 
Q 1516 4384 1395 4259 
Q 1275 4134 1275 3809 
L 1275 3500 
L 2222 3500 
L 2222 3053 
L 1275 3053 
L 1275 0 
L 697 0 
L 697 3053 
L 147 3053 
L 147 3500 
L 697 3500 
L 697 3744 
Q 697 4328 969 4595 
Q 1241 4863 1831 4863 
L 2375 4863 
z
" transform="scale(0.015625)"/>
      <path id="DejaVuSans-4d" d="M 628 4666 
L 1569 4666 
L 2759 1491 
L 3956 4666 
L 4897 4666 
L 4897 0 
L 4281 0 
L 4281 4097 
L 3078 897 
L 2444 897 
L 1241 4097 
L 1241 0 
L 628 0 
L 628 4666 
z
" transform="scale(0.015625)"/>
      <path id="DejaVuSans-45" d="M 628 4666 
L 3578 4666 
L 3578 4134 
L 1259 4134 
L 1259 2753 
L 3481 2753 
L 3481 2222 
L 1259 2222 
L 1259 531 
L 3634 531 
L 3634 0 
L 628 0 
L 628 4666 
z
" transform="scale(0.015625)"/>
      <path id="DejaVuSans-41" d="M 2188 4044 
L 1331 1722 
L 3047 1722 
L 2188 4044 
z
M 1831 4666 
L 2547 4666 
L 4325 0 
L 3669 0 
L 3244 1197 
L 1141 1197 
L 716 0 
L 50 0 
L 1831 4666 
z
" transform="scale(0.015625)"/>
      <path id="DejaVuSans-42" d="M 1259 2228 
L 1259 519 
L 2272 519 
Q 2781 519 3026 730 
Q 3272 941 3272 1375 
Q 3272 1813 3026 2020 
Q 2781 2228 2272 2228 
L 1259 2228 
z
M 1259 4147 
L 1259 2741 
L 2194 2741 
Q 2656 2741 2882 2914 
Q 3109 3088 3109 3444 
Q 3109 3797 2882 3972 
Q 2656 4147 2194 4147 
L 1259 4147 
z
M 628 4666 
L 2241 4666 
Q 2963 4666 3353 4366 
Q 3744 4066 3744 3513 
Q 3744 3084 3544 2831 
Q 3344 2578 2956 2516 
Q 3422 2416 3680 2098 
Q 3938 1781 3938 1306 
Q 3938 681 3513 340 
Q 3088 0 2303 0 
L 628 0 
L 628 4666 
z
" transform="scale(0.015625)"/>
      <path id="DejaVuSans-49" d="M 628 4666 
L 1259 4666 
L 1259 0 
L 628 0 
L 628 4666 
z
" transform="scale(0.015625)"/>
     </defs>
     <use xlink:href="#DejaVuSans-43"/>
     <use xlink:href="#DejaVuSans-72" x="69.824219"/>
     <use xlink:href="#DejaVuSans-6f" x="108.6875"/>
     <use xlink:href="#DejaVuSans-73" x="169.869141"/>
     <use xlink:href="#DejaVuSans-73" x="221.96875"/>
     <use xlink:href="#DejaVuSans-20" x="274.068359"/>
     <use xlink:href="#DejaVuSans-56" x="305.855469"/>
     <use xlink:href="#DejaVuSans-61" x="366.513672"/>
     <use xlink:href="#DejaVuSans-6c" x="427.792969"/>
     <use xlink:href="#DejaVuSans-69" x="455.576172"/>
     <use xlink:href="#DejaVuSans-61" x="483.359375"/>
     <use xlink:href="#DejaVuSans-64" x="544.638672"/>
     <use xlink:href="#DejaVuSans-61" x="608.115234"/>
     <use xlink:href="#DejaVuSans-74" x="669.394531"/>
     <use xlink:href="#DejaVuSans-69" x="708.603516"/>
     <use xlink:href="#DejaVuSans-6f" x="736.386719"/>
     <use xlink:href="#DejaVuSans-6e" x="797.568359"/>
     <use xlink:href="#DejaVuSans-20" x="860.947266"/>
     <use xlink:href="#DejaVuSans-52" x="892.734375"/>
     <use xlink:href="#DejaVuSans-6f" x="957.716797"/>
     <use xlink:href="#DejaVuSans-63" x="1018.898438"/>
     <use xlink:href="#DejaVuSans-20" x="1073.878906"/>
     <use xlink:href="#DejaVuSans-63" x="1105.666016"/>
     <use xlink:href="#DejaVuSans-75" x="1160.646484"/>
     <use xlink:href="#DejaVuSans-72" x="1224.025391"/>
     <use xlink:href="#DejaVuSans-76" x="1265.138672"/>
     <use xlink:href="#DejaVuSans-65" x="1324.318359"/>
     <use xlink:href="#DejaVuSans-20" x="1385.841797"/>
     <use xlink:href="#DejaVuSans-66" x="1417.628906"/>
     <use xlink:href="#DejaVuSans-6f" x="1452.833984"/>
     <use xlink:href="#DejaVuSans-72" x="1514.015625"/>
     <use xlink:href="#DejaVuSans-20" x="1555.128906"/>
     <use xlink:href="#DejaVuSans-4d" x="1586.916016"/>
     <use xlink:href="#DejaVuSans-45" x="1673.195312"/>
     <use xlink:href="#DejaVuSans-54" x="1736.378906"/>
     <use xlink:href="#DejaVuSans-41" x="1789.712891"/>
     <use xlink:href="#DejaVuSans-42" x="1858.121094"/>
     <use xlink:href="#DejaVuSans-52" x="1926.724609"/>
     <use xlink:href="#DejaVuSans-49" x="1996.207031"/>
     <use xlink:href="#DejaVuSans-43" x="2025.699219"/>
    </g>
   </g>
   <g id="legend_1">
    <g id="patch_7">
     <path d="M 72.9625 315.4 
L 317 315.4 
Q 319 315.4 319 313.4 
L 319 226.33125 
Q 319 224.33125 317 224.33125 
L 72.9625 224.33125 
Q 70.9625 224.33125 70.9625 226.33125 
L 70.9625 313.4 
Q 70.9625 315.4 72.9625 315.4 
z
" style="fill: #ffffff; opacity: 0.8; stroke: #cccccc; stroke-linejoin: miter"/>
    </g>
    <g id="line2d_20">
     <path d="M 74.9625 232.429688 
L 84.9625 232.429688 
L 94.9625 232.429688 
" style="fill: none; stroke-dasharray: 4.44,1.92; stroke-dashoffset: 0; stroke: #1f77b4; stroke-width: 1.2"/>
    </g>
    <g id="text_16">
     <!-- ROC 1-fold cross-validation (area = 0.957) -->
     <g transform="translate(102.9625 235.929688)scale(0.1 -0.1)">
      <defs>
       <path id="DejaVuSans-4f" d="M 2522 4238 
Q 1834 4238 1429 3725 
Q 1025 3213 1025 2328 
Q 1025 1447 1429 934 
Q 1834 422 2522 422 
Q 3209 422 3611 934 
Q 4013 1447 4013 2328 
Q 4013 3213 3611 3725 
Q 3209 4238 2522 4238 
z
M 2522 4750 
Q 3503 4750 4090 4092 
Q 4678 3434 4678 2328 
Q 4678 1225 4090 567 
Q 3503 -91 2522 -91 
Q 1538 -91 948 565 
Q 359 1222 359 2328 
Q 359 3434 948 4092 
Q 1538 4750 2522 4750 
z
" transform="scale(0.015625)"/>
       <path id="DejaVuSans-2d" d="M 313 2009 
L 1997 2009 
L 1997 1497 
L 313 1497 
L 313 2009 
z
" transform="scale(0.015625)"/>
       <path id="DejaVuSans-28" d="M 1984 4856 
Q 1566 4138 1362 3434 
Q 1159 2731 1159 2009 
Q 1159 1288 1364 580 
Q 1569 -128 1984 -844 
L 1484 -844 
Q 1016 -109 783 600 
Q 550 1309 550 2009 
Q 550 2706 781 3412 
Q 1013 4119 1484 4856 
L 1984 4856 
z
" transform="scale(0.015625)"/>
       <path id="DejaVuSans-3d" d="M 678 2906 
L 4684 2906 
L 4684 2381 
L 678 2381 
L 678 2906 
z
M 678 1631 
L 4684 1631 
L 4684 1100 
L 678 1100 
L 678 1631 
z
" transform="scale(0.015625)"/>
       <path id="DejaVuSans-39" d="M 703 97 
L 703 672 
Q 941 559 1184 500 
Q 1428 441 1663 441 
Q 2288 441 2617 861 
Q 2947 1281 2994 2138 
Q 2813 1869 2534 1725 
Q 2256 1581 1919 1581 
Q 1219 1581 811 2004 
Q 403 2428 403 3163 
Q 403 3881 828 4315 
Q 1253 4750 1959 4750 
Q 2769 4750 3195 4129 
Q 3622 3509 3622 2328 
Q 3622 1225 3098 567 
Q 2575 -91 1691 -91 
Q 1453 -91 1209 -44 
Q 966 3 703 97 
z
M 1959 2075 
Q 2384 2075 2632 2365 
Q 2881 2656 2881 3163 
Q 2881 3666 2632 3958 
Q 2384 4250 1959 4250 
Q 1534 4250 1286 3958 
Q 1038 3666 1038 3163 
Q 1038 2656 1286 2365 
Q 1534 2075 1959 2075 
z
" transform="scale(0.015625)"/>
       <path id="DejaVuSans-35" d="M 691 4666 
L 3169 4666 
L 3169 4134 
L 1269 4134 
L 1269 2991 
Q 1406 3038 1543 3061 
Q 1681 3084 1819 3084 
Q 2600 3084 3056 2656 
Q 3513 2228 3513 1497 
Q 3513 744 3044 326 
Q 2575 -91 1722 -91 
Q 1428 -91 1123 -41 
Q 819 9 494 109 
L 494 744 
Q 775 591 1075 516 
Q 1375 441 1709 441 
Q 2250 441 2565 725 
Q 2881 1009 2881 1497 
Q 2881 1984 2565 2268 
Q 2250 2553 1709 2553 
Q 1456 2553 1204 2497 
Q 953 2441 691 2322 
L 691 4666 
z
" transform="scale(0.015625)"/>
       <path id="DejaVuSans-37" d="M 525 4666 
L 3525 4666 
L 3525 4397 
L 1831 0 
L 1172 0 
L 2766 4134 
L 525 4134 
L 525 4666 
z
" transform="scale(0.015625)"/>
       <path id="DejaVuSans-29" d="M 513 4856 
L 1013 4856 
Q 1481 4119 1714 3412 
Q 1947 2706 1947 2009 
Q 1947 1309 1714 600 
Q 1481 -109 1013 -844 
L 513 -844 
Q 928 -128 1133 580 
Q 1338 1288 1338 2009 
Q 1338 2731 1133 3434 
Q 928 4138 513 4856 
z
" transform="scale(0.015625)"/>
      </defs>
      <use xlink:href="#DejaVuSans-52"/>
      <use xlink:href="#DejaVuSans-4f" x="69.482422"/>
      <use xlink:href="#DejaVuSans-43" x="148.193359"/>
      <use xlink:href="#DejaVuSans-20" x="218.017578"/>
      <use xlink:href="#DejaVuSans-31" x="249.804688"/>
      <use xlink:href="#DejaVuSans-2d" x="313.427734"/>
      <use xlink:href="#DejaVuSans-66" x="349.511719"/>
      <use xlink:href="#DejaVuSans-6f" x="384.716797"/>
      <use xlink:href="#DejaVuSans-6c" x="445.898438"/>
      <use xlink:href="#DejaVuSans-64" x="473.681641"/>
      <use xlink:href="#DejaVuSans-20" x="537.158203"/>
      <use xlink:href="#DejaVuSans-63" x="568.945312"/>
      <use xlink:href="#DejaVuSans-72" x="623.925781"/>
      <use xlink:href="#DejaVuSans-6f" x="662.789062"/>
      <use xlink:href="#DejaVuSans-73" x="723.970703"/>
      <use xlink:href="#DejaVuSans-73" x="776.070312"/>
      <use xlink:href="#DejaVuSans-2d" x="828.169922"/>
      <use xlink:href="#DejaVuSans-76" x="861.628906"/>
      <use xlink:href="#DejaVuSans-61" x="920.808594"/>
      <use xlink:href="#DejaVuSans-6c" x="982.087891"/>
      <use xlink:href="#DejaVuSans-69" x="1009.871094"/>
      <use xlink:href="#DejaVuSans-64" x="1037.654297"/>
      <use xlink:href="#DejaVuSans-61" x="1101.130859"/>
      <use xlink:href="#DejaVuSans-74" x="1162.410156"/>
      <use xlink:href="#DejaVuSans-69" x="1201.619141"/>
      <use xlink:href="#DejaVuSans-6f" x="1229.402344"/>
      <use xlink:href="#DejaVuSans-6e" x="1290.583984"/>
      <use xlink:href="#DejaVuSans-20" x="1353.962891"/>
      <use xlink:href="#DejaVuSans-28" x="1385.75"/>
      <use xlink:href="#DejaVuSans-61" x="1424.763672"/>
      <use xlink:href="#DejaVuSans-72" x="1486.042969"/>
      <use xlink:href="#DejaVuSans-65" x="1524.90625"/>
      <use xlink:href="#DejaVuSans-61" x="1586.429688"/>
      <use xlink:href="#DejaVuSans-20" x="1647.708984"/>
      <use xlink:href="#DejaVuSans-3d" x="1679.496094"/>
      <use xlink:href="#DejaVuSans-20" x="1763.285156"/>
      <use xlink:href="#DejaVuSans-30" x="1795.072266"/>
      <use xlink:href="#DejaVuSans-2e" x="1858.695312"/>
      <use xlink:href="#DejaVuSans-39" x="1890.482422"/>
      <use xlink:href="#DejaVuSans-35" x="1954.105469"/>
      <use xlink:href="#DejaVuSans-37" x="2017.728516"/>
      <use xlink:href="#DejaVuSans-29" x="2081.351562"/>
     </g>
    </g>
    <g id="line2d_21">
     <path d="M 74.9625 247.107813 
L 84.9625 247.107813 
L 94.9625 247.107813 
" style="fill: none; stroke-dasharray: 4.44,1.92; stroke-dashoffset: 0; stroke: #ff7f0e; stroke-width: 1.2"/>
    </g>
    <g id="text_17">
     <!-- ROC 2-fold cross-validation (area = 0.949) -->
     <g transform="translate(102.9625 250.607813)scale(0.1 -0.1)">
      <use xlink:href="#DejaVuSans-52"/>
      <use xlink:href="#DejaVuSans-4f" x="69.482422"/>
      <use xlink:href="#DejaVuSans-43" x="148.193359"/>
      <use xlink:href="#DejaVuSans-20" x="218.017578"/>
      <use xlink:href="#DejaVuSans-32" x="249.804688"/>
      <use xlink:href="#DejaVuSans-2d" x="313.427734"/>
      <use xlink:href="#DejaVuSans-66" x="349.511719"/>
      <use xlink:href="#DejaVuSans-6f" x="384.716797"/>
      <use xlink:href="#DejaVuSans-6c" x="445.898438"/>
      <use xlink:href="#DejaVuSans-64" x="473.681641"/>
      <use xlink:href="#DejaVuSans-20" x="537.158203"/>
      <use xlink:href="#DejaVuSans-63" x="568.945312"/>
      <use xlink:href="#DejaVuSans-72" x="623.925781"/>
      <use xlink:href="#DejaVuSans-6f" x="662.789062"/>
      <use xlink:href="#DejaVuSans-73" x="723.970703"/>
      <use xlink:href="#DejaVuSans-73" x="776.070312"/>
      <use xlink:href="#DejaVuSans-2d" x="828.169922"/>
      <use xlink:href="#DejaVuSans-76" x="861.628906"/>
      <use xlink:href="#DejaVuSans-61" x="920.808594"/>
      <use xlink:href="#DejaVuSans-6c" x="982.087891"/>
      <use xlink:href="#DejaVuSans-69" x="1009.871094"/>
      <use xlink:href="#DejaVuSans-64" x="1037.654297"/>
      <use xlink:href="#DejaVuSans-61" x="1101.130859"/>
      <use xlink:href="#DejaVuSans-74" x="1162.410156"/>
      <use xlink:href="#DejaVuSans-69" x="1201.619141"/>
      <use xlink:href="#DejaVuSans-6f" x="1229.402344"/>
      <use xlink:href="#DejaVuSans-6e" x="1290.583984"/>
      <use xlink:href="#DejaVuSans-20" x="1353.962891"/>
      <use xlink:href="#DejaVuSans-28" x="1385.75"/>
      <use xlink:href="#DejaVuSans-61" x="1424.763672"/>
      <use xlink:href="#DejaVuSans-72" x="1486.042969"/>
      <use xlink:href="#DejaVuSans-65" x="1524.90625"/>
      <use xlink:href="#DejaVuSans-61" x="1586.429688"/>
      <use xlink:href="#DejaVuSans-20" x="1647.708984"/>
      <use xlink:href="#DejaVuSans-3d" x="1679.496094"/>
      <use xlink:href="#DejaVuSans-20" x="1763.285156"/>
      <use xlink:href="#DejaVuSans-30" x="1795.072266"/>
      <use xlink:href="#DejaVuSans-2e" x="1858.695312"/>
      <use xlink:href="#DejaVuSans-39" x="1890.482422"/>
      <use xlink:href="#DejaVuSans-34" x="1954.105469"/>
      <use xlink:href="#DejaVuSans-39" x="2017.728516"/>
      <use xlink:href="#DejaVuSans-29" x="2081.351562"/>
     </g>
    </g>
    <g id="line2d_22">
     <path d="M 74.9625 261.785938 
L 84.9625 261.785938 
L 94.9625 261.785938 
" style="fill: none; stroke-dasharray: 4.44,1.92; stroke-dashoffset: 0; stroke: #2ca02c; stroke-width: 1.2"/>
    </g>
    <g id="text_18">
     <!-- ROC 3-fold cross-validation (area = 0.967) -->
     <g transform="translate(102.9625 265.285938)scale(0.1 -0.1)">
      <defs>
       <path id="DejaVuSans-33" d="M 2597 2516 
Q 3050 2419 3304 2112 
Q 3559 1806 3559 1356 
Q 3559 666 3084 287 
Q 2609 -91 1734 -91 
Q 1441 -91 1130 -33 
Q 819 25 488 141 
L 488 750 
Q 750 597 1062 519 
Q 1375 441 1716 441 
Q 2309 441 2620 675 
Q 2931 909 2931 1356 
Q 2931 1769 2642 2001 
Q 2353 2234 1838 2234 
L 1294 2234 
L 1294 2753 
L 1863 2753 
Q 2328 2753 2575 2939 
Q 2822 3125 2822 3475 
Q 2822 3834 2567 4026 
Q 2313 4219 1838 4219 
Q 1578 4219 1281 4162 
Q 984 4106 628 3988 
L 628 4550 
Q 988 4650 1302 4700 
Q 1616 4750 1894 4750 
Q 2613 4750 3031 4423 
Q 3450 4097 3450 3541 
Q 3450 3153 3228 2886 
Q 3006 2619 2597 2516 
z
" transform="scale(0.015625)"/>
      </defs>
      <use xlink:href="#DejaVuSans-52"/>
      <use xlink:href="#DejaVuSans-4f" x="69.482422"/>
      <use xlink:href="#DejaVuSans-43" x="148.193359"/>
      <use xlink:href="#DejaVuSans-20" x="218.017578"/>
      <use xlink:href="#DejaVuSans-33" x="249.804688"/>
      <use xlink:href="#DejaVuSans-2d" x="313.427734"/>
      <use xlink:href="#DejaVuSans-66" x="349.511719"/>
      <use xlink:href="#DejaVuSans-6f" x="384.716797"/>
      <use xlink:href="#DejaVuSans-6c" x="445.898438"/>
      <use xlink:href="#DejaVuSans-64" x="473.681641"/>
      <use xlink:href="#DejaVuSans-20" x="537.158203"/>
      <use xlink:href="#DejaVuSans-63" x="568.945312"/>
      <use xlink:href="#DejaVuSans-72" x="623.925781"/>
      <use xlink:href="#DejaVuSans-6f" x="662.789062"/>
      <use xlink:href="#DejaVuSans-73" x="723.970703"/>
      <use xlink:href="#DejaVuSans-73" x="776.070312"/>
      <use xlink:href="#DejaVuSans-2d" x="828.169922"/>
      <use xlink:href="#DejaVuSans-76" x="861.628906"/>
      <use xlink:href="#DejaVuSans-61" x="920.808594"/>
      <use xlink:href="#DejaVuSans-6c" x="982.087891"/>
      <use xlink:href="#DejaVuSans-69" x="1009.871094"/>
      <use xlink:href="#DejaVuSans-64" x="1037.654297"/>
      <use xlink:href="#DejaVuSans-61" x="1101.130859"/>
      <use xlink:href="#DejaVuSans-74" x="1162.410156"/>
      <use xlink:href="#DejaVuSans-69" x="1201.619141"/>
      <use xlink:href="#DejaVuSans-6f" x="1229.402344"/>
      <use xlink:href="#DejaVuSans-6e" x="1290.583984"/>
      <use xlink:href="#DejaVuSans-20" x="1353.962891"/>
      <use xlink:href="#DejaVuSans-28" x="1385.75"/>
      <use xlink:href="#DejaVuSans-61" x="1424.763672"/>
      <use xlink:href="#DejaVuSans-72" x="1486.042969"/>
      <use xlink:href="#DejaVuSans-65" x="1524.90625"/>
      <use xlink:href="#DejaVuSans-61" x="1586.429688"/>
      <use xlink:href="#DejaVuSans-20" x="1647.708984"/>
      <use xlink:href="#DejaVuSans-3d" x="1679.496094"/>
      <use xlink:href="#DejaVuSans-20" x="1763.285156"/>
      <use xlink:href="#DejaVuSans-30" x="1795.072266"/>
      <use xlink:href="#DejaVuSans-2e" x="1858.695312"/>
      <use xlink:href="#DejaVuSans-39" x="1890.482422"/>
      <use xlink:href="#DejaVuSans-36" x="1954.105469"/>
      <use xlink:href="#DejaVuSans-37" x="2017.728516"/>
      <use xlink:href="#DejaVuSans-29" x="2081.351562"/>
     </g>
    </g>
    <g id="line2d_23">
     <path d="M 74.9625 276.464063 
L 84.9625 276.464063 
L 94.9625 276.464063 
" style="fill: none; stroke-dasharray: 4.44,1.92; stroke-dashoffset: 0; stroke: #d62728; stroke-width: 1.2"/>
    </g>
    <g id="text_19">
     <!-- ROC 4-fold cross-validation (area = 0.956) -->
     <g transform="translate(102.9625 279.964063)scale(0.1 -0.1)">
      <use xlink:href="#DejaVuSans-52"/>
      <use xlink:href="#DejaVuSans-4f" x="69.482422"/>
      <use xlink:href="#DejaVuSans-43" x="148.193359"/>
      <use xlink:href="#DejaVuSans-20" x="218.017578"/>
      <use xlink:href="#DejaVuSans-34" x="249.804688"/>
      <use xlink:href="#DejaVuSans-2d" x="313.427734"/>
      <use xlink:href="#DejaVuSans-66" x="349.511719"/>
      <use xlink:href="#DejaVuSans-6f" x="384.716797"/>
      <use xlink:href="#DejaVuSans-6c" x="445.898438"/>
      <use xlink:href="#DejaVuSans-64" x="473.681641"/>
      <use xlink:href="#DejaVuSans-20" x="537.158203"/>
      <use xlink:href="#DejaVuSans-63" x="568.945312"/>
      <use xlink:href="#DejaVuSans-72" x="623.925781"/>
      <use xlink:href="#DejaVuSans-6f" x="662.789062"/>
      <use xlink:href="#DejaVuSans-73" x="723.970703"/>
      <use xlink:href="#DejaVuSans-73" x="776.070312"/>
      <use xlink:href="#DejaVuSans-2d" x="828.169922"/>
      <use xlink:href="#DejaVuSans-76" x="861.628906"/>
      <use xlink:href="#DejaVuSans-61" x="920.808594"/>
      <use xlink:href="#DejaVuSans-6c" x="982.087891"/>
      <use xlink:href="#DejaVuSans-69" x="1009.871094"/>
      <use xlink:href="#DejaVuSans-64" x="1037.654297"/>
      <use xlink:href="#DejaVuSans-61" x="1101.130859"/>
      <use xlink:href="#DejaVuSans-74" x="1162.410156"/>
      <use xlink:href="#DejaVuSans-69" x="1201.619141"/>
      <use xlink:href="#DejaVuSans-6f" x="1229.402344"/>
      <use xlink:href="#DejaVuSans-6e" x="1290.583984"/>
      <use xlink:href="#DejaVuSans-20" x="1353.962891"/>
      <use xlink:href="#DejaVuSans-28" x="1385.75"/>
      <use xlink:href="#DejaVuSans-61" x="1424.763672"/>
      <use xlink:href="#DejaVuSans-72" x="1486.042969"/>
      <use xlink:href="#DejaVuSans-65" x="1524.90625"/>
      <use xlink:href="#DejaVuSans-61" x="1586.429688"/>
      <use xlink:href="#DejaVuSans-20" x="1647.708984"/>
      <use xlink:href="#DejaVuSans-3d" x="1679.496094"/>
      <use xlink:href="#DejaVuSans-20" x="1763.285156"/>
      <use xlink:href="#DejaVuSans-30" x="1795.072266"/>
      <use xlink:href="#DejaVuSans-2e" x="1858.695312"/>
      <use xlink:href="#DejaVuSans-39" x="1890.482422"/>
      <use xlink:href="#DejaVuSans-35" x="1954.105469"/>
      <use xlink:href="#DejaVuSans-36" x="2017.728516"/>
      <use xlink:href="#DejaVuSans-29" x="2081.351562"/>
     </g>
    </g>
    <g id="line2d_24">
     <path d="M 74.9625 291.142188 
L 84.9625 291.142188 
L 94.9625 291.142188 
" style="fill: none; stroke-dasharray: 4.44,1.92; stroke-dashoffset: 0; stroke: #9467bd; stroke-width: 1.2"/>
    </g>
    <g id="text_20">
     <!-- ROC 5-fold cross-validation (area = 0.953) -->
     <g transform="translate(102.9625 294.642188)scale(0.1 -0.1)">
      <use xlink:href="#DejaVuSans-52"/>
      <use xlink:href="#DejaVuSans-4f" x="69.482422"/>
      <use xlink:href="#DejaVuSans-43" x="148.193359"/>
      <use xlink:href="#DejaVuSans-20" x="218.017578"/>
      <use xlink:href="#DejaVuSans-35" x="249.804688"/>
      <use xlink:href="#DejaVuSans-2d" x="313.427734"/>
      <use xlink:href="#DejaVuSans-66" x="349.511719"/>
      <use xlink:href="#DejaVuSans-6f" x="384.716797"/>
      <use xlink:href="#DejaVuSans-6c" x="445.898438"/>
      <use xlink:href="#DejaVuSans-64" x="473.681641"/>
      <use xlink:href="#DejaVuSans-20" x="537.158203"/>
      <use xlink:href="#DejaVuSans-63" x="568.945312"/>
      <use xlink:href="#DejaVuSans-72" x="623.925781"/>
      <use xlink:href="#DejaVuSans-6f" x="662.789062"/>
      <use xlink:href="#DejaVuSans-73" x="723.970703"/>
      <use xlink:href="#DejaVuSans-73" x="776.070312"/>
      <use xlink:href="#DejaVuSans-2d" x="828.169922"/>
      <use xlink:href="#DejaVuSans-76" x="861.628906"/>
      <use xlink:href="#DejaVuSans-61" x="920.808594"/>
      <use xlink:href="#DejaVuSans-6c" x="982.087891"/>
      <use xlink:href="#DejaVuSans-69" x="1009.871094"/>
      <use xlink:href="#DejaVuSans-64" x="1037.654297"/>
      <use xlink:href="#DejaVuSans-61" x="1101.130859"/>
      <use xlink:href="#DejaVuSans-74" x="1162.410156"/>
      <use xlink:href="#DejaVuSans-69" x="1201.619141"/>
      <use xlink:href="#DejaVuSans-6f" x="1229.402344"/>
      <use xlink:href="#DejaVuSans-6e" x="1290.583984"/>
      <use xlink:href="#DejaVuSans-20" x="1353.962891"/>
      <use xlink:href="#DejaVuSans-28" x="1385.75"/>
      <use xlink:href="#DejaVuSans-61" x="1424.763672"/>
      <use xlink:href="#DejaVuSans-72" x="1486.042969"/>
      <use xlink:href="#DejaVuSans-65" x="1524.90625"/>
      <use xlink:href="#DejaVuSans-61" x="1586.429688"/>
      <use xlink:href="#DejaVuSans-20" x="1647.708984"/>
      <use xlink:href="#DejaVuSans-3d" x="1679.496094"/>
      <use xlink:href="#DejaVuSans-20" x="1763.285156"/>
      <use xlink:href="#DejaVuSans-30" x="1795.072266"/>
      <use xlink:href="#DejaVuSans-2e" x="1858.695312"/>
      <use xlink:href="#DejaVuSans-39" x="1890.482422"/>
      <use xlink:href="#DejaVuSans-35" x="1954.105469"/>
      <use xlink:href="#DejaVuSans-33" x="2017.728516"/>
      <use xlink:href="#DejaVuSans-29" x="2081.351562"/>
     </g>
    </g>
    <g id="line2d_25">
     <path d="M 74.9625 305.820312 
L 84.9625 305.820312 
L 94.9625 305.820312 
" style="fill: none; stroke: #a52a2a; stroke-opacity: 0.8; stroke-width: 1.2; stroke-linecap: square"/>
    </g>
    <g id="text_21">
     <!-- ROC Mean (area=0.956) -->
     <g transform="translate(102.9625 309.320312)scale(0.1 -0.1)">
      <use xlink:href="#DejaVuSans-52"/>
      <use xlink:href="#DejaVuSans-4f" x="69.482422"/>
      <use xlink:href="#DejaVuSans-43" x="148.193359"/>
      <use xlink:href="#DejaVuSans-20" x="218.017578"/>
      <use xlink:href="#DejaVuSans-4d" x="249.804688"/>
      <use xlink:href="#DejaVuSans-65" x="336.083984"/>
      <use xlink:href="#DejaVuSans-61" x="397.607422"/>
      <use xlink:href="#DejaVuSans-6e" x="458.886719"/>
      <use xlink:href="#DejaVuSans-20" x="522.265625"/>
      <use xlink:href="#DejaVuSans-28" x="554.052734"/>
      <use xlink:href="#DejaVuSans-61" x="593.066406"/>
      <use xlink:href="#DejaVuSans-72" x="654.345703"/>
      <use xlink:href="#DejaVuSans-65" x="693.208984"/>
      <use xlink:href="#DejaVuSans-61" x="754.732422"/>
      <use xlink:href="#DejaVuSans-3d" x="816.011719"/>
      <use xlink:href="#DejaVuSans-30" x="899.800781"/>
      <use xlink:href="#DejaVuSans-2e" x="963.423828"/>
      <use xlink:href="#DejaVuSans-39" x="995.210938"/>
      <use xlink:href="#DejaVuSans-35" x="1058.833984"/>
      <use xlink:href="#DejaVuSans-36" x="1122.457031"/>
      <use xlink:href="#DejaVuSans-29" x="1186.080078"/>
     </g>
    </g>
   </g>
  </g>
 </g>
 <defs>
  <clipPath id="pcf85bbd1e8">
   <rect x="45" y="43.2" width="279" height="277.2"/>
  </clipPath>
 </defs>
</svg>
